<svg viewBox="0 0 32 32" fill="none" xmlns="http://www.w3.org/2000/svg">
<path d="M31.9104 1.76429V30.2286C31.9104 31.2071 31.1197 31.9929 30.151 31.9929H22.0167V19.6071H26.1622L26.7819 14.7786H22.0096V11.6929C22.0096 10.2929 22.3942 9.34286 24.3958 9.34286H26.9457V5.02143C26.5041 4.96429 24.9941 4.82857 23.2276 4.82857C19.5522 4.82857 17.0307 7.07857 17.0307 11.2143V14.7786H12.871V19.6071H17.0307V32H1.75934C0.790636 32 0 31.2071 0 30.2357V1.76429C0 0.792857 0.790636 0 1.75934 0H30.1439C31.1197 0 31.9104 0.792857 31.9104 1.76429Z" fill="currentColor"/>
</svg>
