<svg viewBox="0 0 54 53" xmlns="http://www.w3.org/2000/svg">
<path fill-rule="evenodd" clip-rule="evenodd" d="M27 0C12.0847 0 0 12.0847 0 27C0 38.925 7.7355 49.05 18.4657 52.6207C19.8202 52.8682 20.3108 52.0402 20.3108 51.3203C20.3108 50.6768 20.286 48.9802 20.277 46.7302C12.762 48.357 11.1803 43.11 11.1803 43.11C9.9495 39.9893 8.18325 39.1545 8.18325 39.1545C5.73075 37.485 8.36775 37.521 8.36775 37.521C11.0745 37.7145 12.4988 40.2975 12.4988 40.2975C14.9063 44.4285 18.8167 43.2337 20.3557 42.5475C20.6033 40.7992 21.3053 39.6113 22.0702 38.9362C16.0763 38.259 9.774 35.9393 9.774 25.5938C9.774 22.6395 10.8293 20.232 12.5505 18.342C12.2782 17.667 11.3467 14.9153 12.8137 11.1983C12.8137 11.1983 15.0818 10.4782 20.241 13.9657C22.4442 13.367 24.7169 13.0629 27 13.0613C29.295 13.0703 31.6057 13.3672 33.759 13.9657C38.9183 10.4782 41.1772 11.1983 41.1772 11.1983C42.6533 14.9153 41.7307 17.667 41.4473 18.342C43.1797 20.232 44.217 22.6395 44.217 25.5938C44.217 35.9663 37.908 38.241 31.896 38.9183C32.8635 39.744 33.723 41.3955 33.723 43.911C33.723 47.5223 33.6982 50.4315 33.6982 51.3203C33.6982 52.0402 34.1798 52.884 35.5522 52.6207C46.2735 49.0432 54 38.925 54 27C54 12.0847 41.9152 0 27 0Z" fill="currentColor"/>
</svg>
