<svg viewBox="0 0 32 32" xmlns="http://www.w3.org/2000/svg">
<path d="M12.5938 19.0938C11.7312 19.0938 11.0375 18.4 11.0375 17.5562C11.0375 16.6938 11.7312 16 12.5938 16C13.4438 16 14.1313 16.6938 14.1313 17.5562C14.1313 18.4062 13.4375 19.0938 12.5938 19.0938ZM31.5 16C31.5 24.5625 24.5625 31.5 16 31.5C7.4375 31.5 0.5 24.5625 0.5 16C0.5 7.4375 7.4375 0.5 16 0.5C24.5625 0.5 31.5 7.4375 31.5 16ZM23.2313 13.425C22.6438 13.425 22.125 13.6687 21.7437 14.05C20.3438 13.0813 18.4562 12.4563 16.3625 12.3875L17.45 7.49375L20.9125 8.275C20.9125 9.125 21.6063 9.8125 22.45 9.8125C23.3125 9.8125 24.0063 9.10625 24.0063 8.25625C24.0063 7.40625 23.3125 6.7 22.45 6.7C21.8438 6.7 21.325 7.0625 21.0688 7.5625L17.2437 6.7125C17.0562 6.6625 16.8625 6.8 16.8125 6.9875L15.6187 12.3875C13.5437 12.475 11.675 13.0938 10.275 14.0625C9.89375 13.6625 9.35625 13.425 8.76875 13.425C6.5875 13.425 5.875 16.3563 7.86875 17.35C7.8 17.6625 7.7625 17.9875 7.7625 18.3188C7.7625 21.6063 11.4625 24.2687 16.0125 24.2687C20.5813 24.2687 24.2812 21.6063 24.2812 18.3188C24.2812 17.9875 24.2437 17.6437 24.1625 17.3312C26.1187 16.3312 25.4 13.425 23.2313 13.425ZM18.925 20.6875C17.7875 21.825 14.1687 21.8062 13.075 20.6875C12.9375 20.55 12.6937 20.55 12.5562 20.6875C12.4 20.8438 12.4 21.0875 12.5562 21.225C13.9812 22.65 18.0125 22.65 19.4438 21.225C19.6 21.0875 19.6 20.8438 19.4438 20.6875C19.3062 20.55 19.0625 20.55 18.925 20.6875ZM19.4062 16C18.5562 16 17.8687 16.6938 17.8687 17.5562C17.8687 18.4062 18.5625 19.0938 19.4062 19.0938C20.2687 19.0938 20.9625 18.4 20.9625 17.5562C20.9625 16.6938 20.275 16 19.4062 16Z" fill="currentColor"/>
</svg>
