<svg viewBox="0 0 54 44" fill="none" xmlns="http://www.w3.org/2000/svg">
<path d="M54 5.25769C51.9781 6.15279 49.8331 6.73908 47.637 6.99694C49.9491 5.61247 51.6794 3.43517 52.506 0.870191C50.3315 2.15885 47.954 3.06879 45.4748 3.56119C43.9559 1.93748 41.9837 0.808309 39.8145 0.320495C37.6454 -0.167319 35.3796 0.0087963 33.3119 0.825939C31.2442 1.64308 29.4701 3.06345 28.2204 4.90235C26.9708 6.74125 26.3033 8.9136 26.3048 11.1369C26.3048 12.0077 26.4015 12.8514 26.5972 13.6592C22.1907 13.4423 17.8792 12.2993 13.9439 10.3047C10.0086 8.3101 6.53772 5.50866 3.7575 2.08294C2.7697 3.77383 2.25158 5.69792 2.25675 7.65619C2.25675 11.4969 4.2075 14.8899 7.1865 16.8767C5.42691 16.8209 3.70633 16.344 2.169 15.4862V15.6279C2.16748 18.1866 3.05197 20.6668 4.67215 22.6471C6.29233 24.6274 8.54825 25.9857 11.0565 26.4909C9.4254 26.9383 7.71327 27.0045 6.0525 26.6844C6.75992 28.8856 8.13721 30.8109 9.99199 32.1913C11.8468 33.5717 14.0864 34.3382 16.398 34.3839C14.0999 36.1877 11.4687 37.5206 8.65496 38.3062C5.84118 39.0919 2.90009 39.315 0 38.9627C5.06368 42.2213 10.9592 43.9516 16.9807 43.9464C37.3612 43.9464 48.5078 27.0624 48.5078 12.4194C48.5078 11.9469 48.4897 11.4609 48.4717 10.9862C50.6375 9.41806 52.509 7.4795 54 5.25994V5.25769Z" fill="currentColor"/>
</svg>
