<svg viewBox="0 0 105 78" fill="none" xmlns="http://www.w3.org/2000/svg">
<path d="M35.125 32.3281H98.5469C98.7695 32.3281 98.9648 32.4844 99.0117 32.707C100.492 40.1289 99.3672 47.8281 95.8438 54.5117C95.7695 54.6719 95.6016 54.7617 95.4258 54.7617H38.2578C38.082 54.7617 37.9141 54.6719 37.832 54.5117C34.3047 47.8281 33.1797 40.1289 34.6602 32.707C34.707 32.4844 34.9023 32.3281 35.125 32.3281ZM67.6016 0.957037C52.4453 0.660162 38.5469 9.40235 32.2344 23.2266C32.1211 23.4688 31.832 23.5742 31.6016 23.4688C31.4883 23.4258 31.4063 23.3398 31.3594 23.2383V23.2461C28.8477 18.0938 23.8906 14.5859 18.2109 13.9336C17.9492 13.8984 17.7188 14.0938 17.6914 14.3555C17.6797 14.4102 17.6797 14.4649 17.6992 14.5234C18.7422 18.9219 21.0195 22.9219 24.2656 26.0508C24.4609 26.2383 24.4688 26.5391 24.2813 26.7344C24.1719 26.8555 24.0039 26.9102 23.8359 26.8711C15.793 25.1016 7.38672 26.5742 0.414066 30.9648C0.19141 31.1055 0.125003 31.4023 0.265628 31.6289C0.300784 31.6914 0.359379 31.75 0.414066 31.7852C8.77344 37.0508 19.1133 38.0703 28.3359 34.5352C28.5781 34.4336 28.8555 34.5625 28.9609 34.8047C28.9883 34.8789 28.9961 34.9531 28.9883 35.0391C26.7266 56.0039 41.8477 74.8242 62.7578 77.0899C83.6719 79.3555 102.453 64.1875 104.703 43.2344C106.965 22.2695 91.8438 3.43751 70.9336 1.17188C69.8242 1.05079 68.7188 0.988287 67.6133 0.968756L67.6016 0.957037Z" fill="currentColor"/>
<path d="M57.2734 43.5391C57.293 40.9961 55.2539 38.918 52.707 38.8984C50.168 38.8789 48.0938 40.9297 48.0781 43.4766C48.0781 43.5039 48.0781 43.5234 48.0781 43.5391C48.0586 46.0859 50.1055 48.1641 52.6406 48.1836C55.1719 48.2109 57.2461 46.1602 57.2734 43.6133C57.2734 43.5977 57.2734 43.5664 57.2734 43.5391Z" fill="currentColor"/>
<path d="M85.5977 43.5391C85.6133 40.9961 83.5703 38.918 81.0312 38.9062C78.4922 38.8789 76.418 40.9297 76.3984 43.4766C76.3984 43.5039 76.3984 43.5234 76.3984 43.5391C76.3828 46.0859 78.418 48.1641 80.957 48.1836C83.4961 48.2109 85.5664 46.1602 85.5977 43.6133C85.5977 43.5977 85.5977 43.5664 85.5977 43.5391Z" fill="currentColor"/>
</svg>
